<svg width="185" height="49" viewBox="0 0 185 49" fill="none" xmlns="http://www.w3.org/2000/svg">
<path fill-rule="evenodd" clip-rule="evenodd" d="M106.446 36.7555C106.378 37.2202 106.228 37.6244 106.012 37.9823C105.79 38.3402 105.468 38.6231 105.049 38.8367C104.632 39.0445 104.071 39.1542 103.373 39.1542C102.643 39.1542 102.07 39.056 101.648 38.8626C101.222 38.6635 100.903 38.395 100.693 38.0487C100.48 37.7023 100.344 37.2982 100.285 36.8335C100.226 36.3688 100.197 35.8723 100.197 35.3412C100.197 34.862 100.229 34.3887 100.3 33.9355C100.371 33.4766 100.513 33.0638 100.735 32.7088C100.956 32.3422 101.278 32.0535 101.695 31.8313C102.112 31.6177 102.667 31.5022 103.373 31.5022C104.1 31.5022 104.673 31.6033 105.096 31.8053C105.519 32.0074 105.838 32.2873 106.05 32.6366C106.263 32.9887 106.399 33.3957 106.458 33.8633C106.517 34.3252 106.547 34.8245 106.547 35.3527C106.547 35.8348 106.511 36.3024 106.446 36.7555ZM102.711 36.4784C102.726 36.77 102.768 37.0009 102.824 37.177C102.877 37.3444 102.951 37.4627 103.033 37.5233C103.122 37.5868 103.234 37.6186 103.373 37.6186C103.509 37.6186 103.621 37.5868 103.716 37.5233C103.811 37.4627 103.882 37.3444 103.929 37.177C103.979 37.0038 104.014 36.7729 104.032 36.4784C104.05 36.1898 104.062 35.8146 104.062 35.3556C104.062 34.8967 104.053 34.5186 104.032 34.227C104.014 33.9268 103.979 33.693 103.929 33.5227C103.879 33.3524 103.808 33.237 103.716 33.1735C103.621 33.1129 103.512 33.0811 103.373 33.0811C103.237 33.0811 103.122 33.1129 103.033 33.1735C102.948 33.237 102.874 33.3524 102.824 33.5227C102.768 33.693 102.729 33.9268 102.711 34.227C102.691 34.5186 102.685 34.8967 102.685 35.3556C102.685 35.8146 102.694 36.1898 102.711 36.4784ZM84.4971 36.718C84.4971 37.1106 84.5651 37.3761 84.701 37.5089C84.8399 37.6388 84.9965 37.7023 85.1679 37.7023C85.3836 37.7023 85.5579 37.6128 85.685 37.4367C85.8091 37.2635 85.8682 36.9258 85.8682 36.4294H88.1169C88.0992 37.3328 87.8628 38.0082 87.4136 38.4701C86.9615 38.9204 86.2198 39.1513 85.1856 39.1513C84.5858 39.1513 84.0834 39.082 83.6786 38.955C83.2708 38.8251 82.9458 38.6057 82.6976 38.3055C82.4493 38.0054 82.2691 37.6099 82.1657 37.1192C82.0622 36.6343 82.0061 36.0484 82.0061 35.3498C82.0061 34.6456 82.0652 34.0567 82.1864 33.5689C82.3075 33.0782 82.4907 32.6857 82.7537 32.3768C83.0078 32.0737 83.3388 31.8457 83.7407 31.7129C84.1396 31.5686 84.6212 31.4993 85.1856 31.4993C85.682 31.4993 86.1194 31.5571 86.4947 31.6754C86.864 31.7938 87.1802 31.99 87.4314 32.2643C87.6855 32.5385 87.8746 32.8993 87.9987 33.3524C88.1199 33.7941 88.1849 34.3511 88.1849 35.0179V35.7626H84.5001V36.718H84.4971ZM85.7057 33.2658C85.6111 33.084 85.4309 32.9945 85.1649 32.9945C84.9108 32.9945 84.7335 33.084 84.6389 33.2658C84.5414 33.4448 84.4971 33.7306 84.4971 34.1173V34.4435H85.8475V34.1173C85.8475 33.7306 85.8002 33.4448 85.7057 33.2658ZM64.9916 38.6086L64.9354 38.1757C64.7729 38.5047 64.5513 38.7414 64.2558 38.9088C63.9544 39.0704 63.6146 39.1542 63.2304 39.1542C62.8551 39.1542 62.5301 39.1022 62.273 39.0098C62.01 38.9117 61.7943 38.7731 61.6347 38.5855C61.4663 38.395 61.3481 38.1728 61.2742 37.913C61.2063 37.6503 61.1649 37.3617 61.1649 37.0471C61.1649 36.7065 61.2033 36.4063 61.2683 36.1552C61.3363 35.904 61.4486 35.6876 61.6052 35.4999C61.7648 35.3152 61.9746 35.1593 62.2405 35.0323C62.5065 34.8967 62.8374 34.7899 63.2334 34.6975L64.2115 34.4695C64.4774 34.406 64.6665 34.3136 64.7758 34.1953C64.8881 34.0769 64.9384 33.898 64.9384 33.6728C64.9384 33.2254 64.7286 33.0003 64.306 33.0003C64.0696 33.0003 63.8953 33.0638 63.7859 33.1937C63.6737 33.3178 63.6175 33.5776 63.6057 33.9586H61.4456C61.4456 33.4304 61.5431 33.0061 61.7382 32.6886C61.9302 32.3682 62.1725 32.1228 62.4592 31.9467C62.7399 31.7678 63.0502 31.6523 63.3841 31.5975C63.718 31.5369 64.0253 31.508 64.309 31.508C64.7433 31.508 65.1393 31.5398 65.5087 31.609C65.8721 31.6754 66.1853 31.7966 66.4513 31.9727C66.7143 32.1488 66.9152 32.3884 67.0571 32.6886C67.1989 32.9916 67.2728 33.3784 67.2728 33.8576V37.4281C67.2728 37.7687 67.2875 38.0717 67.3141 38.3344C67.3437 38.5942 67.4057 38.8193 67.5092 39.0098H65.092C65.0447 38.8799 65.0122 38.7414 64.9916 38.6086ZM64.7552 37.2549C64.8763 37.0586 64.9354 36.7555 64.9354 36.3543V35.4768C64.8379 35.575 64.7227 35.6385 64.5749 35.6558C64.4242 35.6818 64.2558 35.7337 64.0696 35.8146C63.8775 35.904 63.7475 36.0224 63.6707 36.1725C63.5998 36.3197 63.5643 36.5217 63.5643 36.7584C63.5643 37.0009 63.6205 37.1972 63.7328 37.3415C63.8391 37.4858 63.9869 37.558 64.173 37.558C64.4419 37.5551 64.637 37.4569 64.7552 37.2549ZM53.2339 39.0041H50.7458V31.6927H53.2339V39.0041ZM53.2339 31.1587H50.7458V29.349H53.2339V31.1587ZM35.0639 39.0041H32.5759V31.6927H35.0639V39.0041ZM35.0639 31.1587H32.5759V29.349H35.0639V31.1587ZM87 9.97236C87 9.27673 87.5496 8.71388 88.2233 8.71388C88.9029 8.71388 89.4496 9.27673 89.4496 9.97236C89.4496 10.668 88.9 11.2308 88.2233 11.2308C87.5496 11.2337 87 10.668 87 9.97236ZM89.8367 9.97236C89.8367 9.27673 90.3834 8.71388 91.063 8.71388C91.7397 8.71388 92.2863 9.27673 92.2863 9.97236C92.2863 10.668 91.7367 11.2308 91.063 11.2308C90.3834 11.2337 89.8367 10.668 89.8367 9.97236ZM108.406 9.97236C108.406 9.27673 108.952 8.71388 109.629 8.71388C110.306 8.71388 110.855 9.27673 110.855 9.97236C110.855 10.668 110.306 11.2308 109.629 11.2308C108.952 11.2337 108.406 10.668 108.406 9.97236ZM111.245 9.97236C111.245 9.27673 111.789 8.71388 112.472 8.71388C113.145 8.71388 113.695 9.27673 113.695 9.97236C113.695 10.668 113.145 11.2308 112.472 11.2308C111.789 11.2337 111.245 10.668 111.245 9.97236ZM124.483 22.7361C124.483 22.0376 125.03 21.4806 125.707 21.4806C126.38 21.4806 126.933 22.0405 126.933 22.7361C126.933 23.4376 126.38 24.0004 125.707 24.0004C125.027 23.9975 124.483 23.4347 124.483 22.7361ZM116.487 22.7361C116.487 22.0376 117.034 21.4806 117.711 21.4806C118.387 21.4806 118.934 22.0405 118.934 22.7361C118.934 23.4376 118.387 24.0004 117.711 24.0004C117.037 23.9975 116.487 23.4347 116.487 22.7361ZM119.478 22.7361C119.478 22.0376 120.024 21.4806 120.701 21.4806C121.375 21.4806 121.924 22.0405 121.924 22.7361C121.924 23.4376 121.375 24.0004 120.701 24.0004C120.024 23.9975 119.478 23.4347 119.478 22.7361ZM63.2215 22.7361C63.2215 22.0376 63.7712 21.4806 64.4449 21.4806C65.1245 21.4806 65.6741 22.0405 65.6741 22.7361C65.6741 23.4376 65.1216 24.0004 64.4449 24.0004C63.7712 23.9975 63.2215 23.4347 63.2215 22.7361ZM66.0672 22.7361C66.0672 22.0376 66.6168 21.4806 67.2905 21.4806C67.9701 21.4806 68.5198 22.0405 68.5198 22.7361C68.5198 23.4376 67.9701 24.0004 67.2905 24.0004C66.6168 23.9975 66.0672 23.4347 66.0672 22.7361ZM13.3422 22.7361C13.3422 22.0376 13.8888 21.4806 14.5655 21.4806C15.2422 21.4806 15.7889 22.0405 15.7889 22.7361C15.7889 23.4376 15.2422 24.0004 14.5655 24.0004C13.8888 23.9975 13.3422 23.4347 13.3422 22.7361ZM16.1789 22.7361C16.1789 22.0376 16.7285 21.4806 17.4082 21.4806C18.0819 21.4806 18.6286 22.0405 18.6286 22.7361C18.6286 23.4376 18.0819 24.0004 17.4082 24.0004C16.7285 23.9975 16.1789 23.4347 16.1789 22.7361ZM6.62559 9.92907C6.62559 9.23344 7.17521 8.67058 7.85189 8.67058C8.52857 8.67058 9.07523 9.23632 9.07523 9.92907C9.07523 10.6276 8.52857 11.1875 7.85189 11.1875C7.17225 11.1875 6.62559 10.6276 6.62559 9.92907ZM9.46824 9.92907C9.46824 9.23344 10.0149 8.67058 10.6916 8.67058C11.3683 8.67058 11.9179 9.23632 11.9179 9.92907C11.9179 10.6276 11.3683 11.1875 10.6916 11.1875C10.0149 11.1875 9.46824 10.6276 9.46824 9.92907ZM1.35693 22.7361C1.35693 22.0376 1.9036 21.4806 2.58028 21.4806C3.25696 21.4806 3.80953 22.0405 3.80953 22.7361C3.80953 23.4376 3.25696 24.0004 2.58028 24.0004C1.90655 23.9975 1.35693 23.4347 1.35693 22.7361ZM4.19663 22.7361C4.19663 22.0376 4.74625 21.4806 5.41702 21.4806C6.09961 21.4806 6.64627 22.0405 6.64627 22.7361C6.64627 23.4376 6.09961 24.0004 5.41702 24.0004C4.74625 23.9975 4.19663 23.4347 4.19663 22.7361ZM18.6226 13.2918V20.3029H9.60712V15.6788H7.24613V20.3029H0.5V13.2167H3.26287V17.656H5.06538L5.09198 13.1474L12.0361 13.1417V17.9043H16.2587V13.2918H18.6226ZM23.0816 15.523H24.9669V17.8985H23.0816V15.523ZM46.7507 9.99834V20.3029H27.3427C27.3427 20.3029 26.9703 22.6063 25.6436 23.3943C24.435 24.0985 21.8938 23.8705 21.8938 23.8705C21.8938 23.8705 23.7642 22.9093 24.3611 22.1358C24.9551 21.3593 24.8576 20.3029 24.8576 20.3029H20.7147V13.3639H27.3161V17.8985H39.9484V15.4883H31.4648C31.4648 15.4883 29.8839 15.396 29.8839 13.7536C29.8839 12.1112 31.1664 11.4358 31.1664 11.4358L34.9191 8.4541H39.257L33.3442 13.0782H40.2469C40.2469 13.0782 42.2178 13.2658 42.3153 14.7119C42.4099 16.1551 42.3153 17.8985 42.3153 17.8985H44.5847V9.99834H46.7507ZM48.9167 9.99834H51.192V20.3029H48.9167V9.99834ZM68.6439 13.3639V20.3H62.6306C62.6306 20.3 61.6436 23.7204 58.5853 23.7695C52.6724 23.8676 55.1398 16.158 55.1398 16.158C55.1398 16.158 54.7616 20.5829 57.6988 20.5973C60.8606 20.606 60.3612 17.8985 60.3612 17.8985V10.0936H62.731V17.9014H66.1794V13.3639H68.6439ZM81.8643 15.6788H84.1396V17.9014H81.8643V15.6788ZM72.8872 15.6788H75.059V17.9014H72.8872V15.6788ZM94.3903 9.97236H96.5562V20.3029H77.228C77.228 20.3029 77.0329 22.7217 75.0561 23.4866C73.0822 24.2544 71.6018 23.4866 71.6018 23.4866C71.6018 23.4866 72.8812 23.3914 74.0691 22.2281C75.2511 21.0765 74.7606 20.3029 74.7606 20.3029H70.7153V13.2687H77.228V17.9014H79.4974V13.3639H86.4976V17.8985H89.553V13.3639H92.0174V17.8985H94.3903V9.97236ZM98.536 9.99834H100.805V20.3029H98.536V9.99834ZM127.042 13.2687V20.3029H104.747V13.3639H109.283V15.1968H107.41V17.8985H114.812V13.2687H116.978V17.9014H119.741V13.2687H122.013V17.9014H124.675V13.2687H127.042ZM124.407 33.2658C124.309 33.084 124.129 32.9945 123.866 32.9945C123.612 32.9945 123.437 33.084 123.34 33.2658C123.248 33.4448 123.198 33.7306 123.198 34.1173V34.4435H124.548V34.1173C124.548 33.7306 124.501 33.4448 124.407 33.2658ZM123.198 36.718C123.198 37.1106 123.266 37.3761 123.402 37.5089C123.544 37.6388 123.697 37.7023 123.872 37.7023C124.093 37.7023 124.262 37.6128 124.386 37.4367C124.507 37.2635 124.572 36.9258 124.572 36.4294H126.815C126.797 37.3328 126.564 38.0082 126.114 38.4701C125.662 38.9204 124.921 39.1513 123.886 39.1513C123.29 39.1513 122.784 39.082 122.382 38.955C121.978 38.8251 121.653 38.6057 121.401 38.3055C121.156 38.0054 120.973 37.6099 120.872 37.1192C120.763 36.6343 120.71 36.0484 120.71 35.3498C120.71 34.6456 120.772 34.0567 120.887 33.5689C121.005 33.0782 121.195 32.6857 121.455 32.3768C121.715 32.0737 122.043 31.8457 122.444 31.7129C122.843 31.5686 123.325 31.4993 123.886 31.4993C124.386 31.4993 124.817 31.5571 125.195 31.6754C125.568 31.7938 125.878 31.99 126.135 32.2643C126.386 32.5385 126.575 32.8993 126.703 33.3524C126.824 33.7941 126.886 34.3511 126.886 35.0179V35.7626H123.198V36.718ZM116.484 37.151C116.511 37.2751 116.558 37.379 116.623 37.4627C116.741 37.6359 116.919 37.7167 117.149 37.7167C117.338 37.7167 117.507 37.6648 117.649 37.558C117.787 37.4512 117.861 37.2953 117.861 37.0961C117.861 36.8825 117.77 36.7122 117.592 36.5968C117.409 36.4813 117.191 36.3774 116.922 36.2879L116.062 36.0022C115.752 35.904 115.468 35.7655 115.202 35.5981C114.933 35.422 114.711 35.1969 114.537 34.914C114.354 34.6282 114.262 34.2559 114.262 33.7969C114.262 33.4679 114.324 33.1735 114.44 32.8935C114.561 32.6193 114.741 32.3797 114.992 32.1719C115.234 31.9641 115.542 31.7995 115.917 31.6812C116.289 31.5629 116.727 31.5051 117.238 31.5051C119.111 31.5051 120.045 32.2729 120.045 33.8056H117.885C117.885 33.491 117.829 33.2774 117.714 33.1648C117.601 33.0551 117.439 33.0003 117.232 33.0003C117.046 33.0003 116.898 33.0494 116.78 33.1504C116.662 33.2485 116.603 33.3842 116.603 33.5689C116.603 33.7739 116.688 33.9326 116.871 34.0336C117.049 34.1375 117.273 34.2299 117.539 34.3078L118.402 34.5676C118.709 34.6571 118.999 34.787 119.265 34.9515C119.531 35.116 119.755 35.3441 119.93 35.6269C120.11 35.9098 120.202 36.285 120.202 36.7526C120.202 37.1135 120.131 37.4454 119.992 37.7427C119.856 38.0342 119.661 38.2969 119.404 38.5105C119.15 38.727 118.836 38.8886 118.461 38.9954C118.086 39.1022 117.666 39.157 117.194 39.157C116.153 39.157 115.403 38.955 114.948 38.548C114.49 38.1497 114.262 37.5464 114.262 36.7469H116.44C116.44 36.8912 116.455 37.024 116.484 37.151ZM109.818 31.6927V36.5246C109.818 36.8306 109.865 37.05 109.96 37.1827C110.048 37.3184 110.205 37.3877 110.43 37.3877C110.651 37.3877 110.808 37.3155 110.902 37.1827C110.994 37.05 111.041 36.8306 111.041 36.5246V31.6927H113.529V39.0041H111.127L111.121 38.1093C110.793 38.802 110.184 39.1542 109.283 39.1542C109.008 39.1542 108.748 39.1253 108.512 39.0762C108.278 39.03 108.075 38.929 107.897 38.7818C107.723 38.6346 107.581 38.4326 107.484 38.1728C107.383 37.9159 107.327 37.5955 107.327 37.2087V31.6927H109.818ZM95.1615 29.349V32.9079H96.7335V29.349H99.3043V39.0041H96.7335V35.0439H95.1615V39.0041H92.5848V29.349H95.1615ZM79.2432 33.8402C79.2137 33.6555 79.1723 33.5054 79.1162 33.3871C79.0157 33.1821 78.8325 33.0782 78.5695 33.0782C78.4336 33.0782 78.3154 33.11 78.2208 33.1793C78.1233 33.2456 78.0524 33.364 77.9933 33.5401C77.9371 33.7161 77.9017 33.9499 77.878 34.2415C77.8574 34.533 77.8456 34.9024 77.8456 35.3527C77.8456 35.803 77.8603 36.1725 77.878 36.464C77.9046 36.7526 77.9371 36.9836 77.9933 37.1567C78.0553 37.327 78.1233 37.4483 78.2208 37.5147C78.3154 37.5839 78.4336 37.6128 78.5695 37.6128C78.8 37.6128 78.9743 37.5291 79.0984 37.3559C79.2225 37.1827 79.2846 36.8681 79.2846 36.4121V35.9387H81.5304C81.5304 36.5188 81.4801 37.0095 81.3796 37.4165C81.2792 37.8206 81.1049 38.1497 80.8685 38.4152C80.3986 38.9059 79.6362 39.1513 78.5784 39.1513C78.0967 39.1513 77.6594 39.1109 77.2634 39.03C76.8704 38.9492 76.5276 38.7731 76.2469 38.5076C75.9632 38.242 75.7475 37.8668 75.5909 37.3877C75.4373 36.9027 75.3575 36.2677 75.3575 35.474C75.3575 34.6109 75.4432 33.9153 75.6205 33.39C75.7948 32.8675 76.0283 32.4692 76.3326 32.1892C76.634 31.9063 76.9827 31.7274 77.3905 31.635C77.7953 31.5426 78.2326 31.4993 78.6995 31.4993C79.2521 31.4993 79.7101 31.5744 80.0736 31.7274C80.44 31.8746 80.7325 32.0824 80.9482 32.348C81.1639 32.6164 81.3176 32.9339 81.4033 33.3091C81.4919 33.6844 81.5363 34.1 81.5363 34.559H79.2905C79.2846 34.2674 79.2698 34.0279 79.2432 33.8402ZM70.7862 31.6927V32.5846C71.129 31.863 71.7347 31.5022 72.6212 31.5022C72.899 31.5022 73.1531 31.5311 73.3954 31.5917C73.6318 31.6466 73.8357 31.7562 74.013 31.9092C74.1873 32.0651 74.3292 32.2671 74.4267 32.5183C74.5301 32.7694 74.5833 33.0955 74.5833 33.491V39.0041H72.0923V34.178C72.0923 33.872 72.048 33.6497 71.9564 33.517C71.8618 33.3755 71.7022 33.3091 71.4776 33.3091C71.259 33.3091 71.1024 33.3755 71.0078 33.517C70.9133 33.6497 70.8719 33.872 70.8719 34.178V39.0041H68.3809V31.6927H70.7862ZM56.6793 31.6927V32.5846C57.0221 31.863 57.6278 31.5022 58.5114 31.5022C58.7891 31.5022 59.0462 31.5311 59.2826 31.5917C59.519 31.6466 59.7229 31.7562 59.9002 31.9092C60.0745 32.0651 60.2105 32.2671 60.3139 32.5183C60.4144 32.7694 60.4705 33.0955 60.4705 33.491V39.0041H57.9824V34.178C57.9824 33.872 57.9352 33.6497 57.8436 33.517C57.749 33.3755 57.5953 33.3091 57.3678 33.3091C57.1491 33.3091 56.9925 33.3755 56.898 33.517C56.8064 33.6497 56.7621 33.872 56.7621 34.178V39.0041H54.274V31.6927H56.6793ZM50.013 29.349V31.3954H46.733V33.0551H49.8061V35.041H46.733V39.0012H44.1622V29.3461H50.013V29.349ZM36.4498 31.6927V29.5452H38.9379V31.6927H39.9218V33.3351H38.9379V36.8162C38.9379 37.024 38.9881 37.1712 39.0826 37.252C39.1802 37.3386 39.3279 37.3848 39.5348 37.3848H39.9218V39.0041C39.6884 39.0041 39.4579 39.0098 39.2304 39.0243C38.9999 39.0358 38.7783 39.0445 38.5655 39.0445C38.1903 39.0445 37.8682 39.0329 37.5993 38.9983C37.3304 38.9665 37.1147 38.8857 36.9433 38.7616C36.7719 38.6375 36.6507 38.447 36.5709 38.2016C36.4941 37.9563 36.4528 37.6272 36.4528 37.2231V33.3351H35.6224V31.6927H36.4498ZM17.287 31.6927L17.9105 36.9518L18.667 31.6927H21.3205L22.0563 36.9518L22.7064 31.6927H25.1117L23.5958 39.0041H20.7709L20.0115 33.8258L19.2225 39.0041H16.3976L14.8758 31.6927H17.287ZM10.6739 31.6927V36.5246C10.6739 36.8306 10.7182 37.05 10.8157 37.1827C10.9103 37.3184 11.0639 37.3877 11.2885 37.3877C11.5071 37.3877 11.6667 37.3155 11.7554 37.1827C11.8499 37.05 11.8972 36.8306 11.8972 36.5246V31.6927H14.3823V39.0041H11.9829L11.9799 38.1093C11.6519 38.802 11.0462 39.1542 10.1449 39.1542C9.86716 39.1542 9.61008 39.1253 9.37959 39.0762C9.13433 39.03 8.9334 38.929 8.75906 38.7818C8.5788 38.6346 8.43992 38.4326 8.3365 38.1728C8.23603 37.9159 8.18284 37.5955 8.18284 37.2087V31.6927H10.6739ZM3.0708 29.349V33.0551L5.00924 29.349H7.74551L5.2545 33.5689L8.04987 39.0041H5.12153L3.61155 35.6356L3.0708 36.4467V39.0041H0.5V29.349H3.0708ZM29.1393 38.6086L29.0802 38.1757C28.9147 38.5047 28.699 38.7414 28.4005 38.9088C28.0991 39.0704 27.7564 39.1542 27.3752 39.1542C26.9969 39.1542 26.6778 39.1022 26.4178 39.0098C26.1518 38.9117 25.942 38.7731 25.7766 38.5855C25.6111 38.395 25.4929 38.1728 25.419 37.913C25.3422 37.6503 25.3038 37.3617 25.3038 37.0471C25.3038 36.7065 25.3422 36.4063 25.4101 36.1552C25.4752 35.904 25.5904 35.6876 25.747 35.4999C25.9036 35.3152 26.1134 35.1593 26.3794 35.0323C26.6483 34.8967 26.9792 34.7899 27.3722 34.6975L28.3503 34.4695C28.6192 34.406 28.8054 34.3136 28.9117 34.1953C29.024 34.0769 29.0772 33.898 29.0772 33.6728C29.0772 33.2254 28.8704 33.0003 28.4508 33.0003C28.2144 33.0003 28.0371 33.0638 27.9277 33.1937C27.8184 33.3178 27.7564 33.5776 27.7505 33.9586H25.5874C25.5874 33.4304 25.6849 33.0061 25.88 32.6886C26.072 32.3682 26.3114 32.1228 26.598 31.9467C26.8847 31.7678 27.192 31.6523 27.5259 31.5975C27.8539 31.5369 28.1671 31.508 28.4537 31.508C28.8851 31.508 29.287 31.5398 29.6475 31.609C30.0139 31.6754 30.3301 31.7966 30.5931 31.9727C30.8531 32.1488 31.057 32.3884 31.1989 32.6886C31.3437 32.9916 31.4116 33.3784 31.4116 33.8576V37.4281C31.4116 37.7687 31.4264 38.0717 31.4559 38.3344C31.4825 38.5942 31.5476 38.8193 31.648 39.0098H29.2279C29.1925 38.8799 29.157 38.7414 29.1393 38.6086ZM28.9029 37.2549C29.027 37.0586 29.0802 36.7555 29.0802 36.3543V35.4768C28.9827 35.575 28.8704 35.6385 28.7197 35.6558C28.569 35.6818 28.4005 35.7337 28.2173 35.8146C28.0253 35.904 27.8893 36.0224 27.8184 36.1725C27.7416 36.3197 27.7091 36.5217 27.7091 36.7584C27.7091 37.0009 27.7652 37.1972 27.8746 37.3415C27.9868 37.4858 28.1287 37.558 28.3148 37.558C28.5926 37.5551 28.7847 37.4569 28.9029 37.2549Z" fill="#437C57"/>
<path fill-rule="evenodd" clip-rule="evenodd" d="M139.482 0H179.344C182.192 0 184.5 2.2543 184.5 5.03393V43.969C184.5 46.7457 182.192 49 179.344 49H139.482C136.636 49 134.328 46.7457 134.328 43.969V5.03393C134.328 2.2543 136.636 0 139.482 0Z" fill="#437C57"/>
<path fill-rule="evenodd" clip-rule="evenodd" d="M152.283 18.2664H152.628V18.9159H154.189V18.2549H154.558V19.6202H154.177V19.2363H152.611V19.6202H152.283V18.2664Z" fill="white"/>
<path fill-rule="evenodd" clip-rule="evenodd" d="M151.579 19.6128V17.1651C151.579 17.1651 151.671 16.9082 151.898 16.9082H154.564V17.3036H151.952V17.7741H154.564V18.1638H151.952V19.6128H151.579Z" fill="white"/>
<path fill-rule="evenodd" clip-rule="evenodd" d="M150.557 16.3142H151.024L151 16.698C151 16.698 151.204 16.2939 151.361 16.2939H154.555V16.6259L151.458 16.623C151.458 16.623 151.089 17.3735 151.059 18.2279C151.024 19.4488 151.378 19.8385 151.378 19.8385H154.59L154.573 20.2339H151.34C151.34 20.2339 151.18 20.1935 151.062 19.8818V20.1704H150.557V16.3142Z" fill="white"/>
<path fill-rule="evenodd" clip-rule="evenodd" d="M164.971 16.4345V29.8333H150.557V32.7111H168.272V16.4316H164.971V16.4345ZM166.765 18.3655C166.765 18.3655 166.608 18.4608 166.567 18.7206C166.531 18.9804 166.744 19.1564 166.744 19.1564C166.744 19.1564 166.375 19.0612 166.375 18.7379C166.375 18.4146 166.765 18.3655 166.765 18.3655ZM166.144 20.0397C166.144 20.0397 166.183 19.5721 166.664 19.5721C167.143 19.5721 167.099 19.9964 167.099 19.9964V20.8854H166.144V20.0397ZM164.028 29.9805C164.028 29.9805 163.875 30.0787 163.833 30.3385C163.795 30.5982 164.011 30.7772 164.011 30.7772C164.011 30.7772 163.638 30.6791 163.638 30.3587C163.638 30.0383 164.028 29.9805 164.028 29.9805ZM157.504 30.9071H156.171V31.5998H157.442V32.0212H153.663V31.5825H155.574V30.5463H157.504V30.9071ZM161.786 32.0905C161.786 32.0905 162.539 31.1322 163.677 31.1322C164.817 31.1322 165.686 32.0559 165.686 32.0559L161.786 32.0905ZM167.099 32.0819H166.058V26.5255H167.099V32.0819ZM167.444 26.1474H165.707V25.1689H167.444V26.1474ZM166.058 24.912V22.4845H167.099V24.912H166.058ZM167.444 22.115H165.707V21.1394H167.444V22.115Z" fill="white"/>
<path fill-rule="evenodd" clip-rule="evenodd" d="M160.627 16.4346V25.4229H150.557V28.4796H163.842V16.4346H160.627ZM155.096 27.5848H153.728V26.2917H155.096V27.5848ZM157.268 27.5848H155.894V26.2917H157.268V27.5848ZM161.777 19.6674C161.877 19.3268 162.114 18.9891 162.114 18.9891C162.114 18.9891 162.134 19.1738 162.255 19.5259C162.374 19.881 163.186 20.5448 163.166 21.1654C163.145 21.9332 162.616 22.2623 162.182 22.2623C161.517 22.2623 161.136 21.8495 161.035 21.3271C160.893 20.6026 161.682 19.9964 161.777 19.6674ZM161.059 27.8764L161.585 22.522H162.734L163.237 27.8764H161.059Z" fill="white"/>
<path fill-rule="evenodd" clip-rule="evenodd" d="M156.201 16.4346V21.1827H150.557V24.0663H159.324V16.4346H156.201ZM157.052 20.617C157.197 20.1407 157.531 19.8492 157.531 19.8492C157.531 19.8492 157.516 20.1263 157.563 20.3053C157.604 20.4842 157.808 20.7296 157.808 20.7296C157.808 20.7296 157.909 20.3803 158.062 20.1725C158.213 19.9618 158.382 19.8146 158.382 19.8146C158.382 19.8146 158.249 20.5073 158.308 20.8017C158.373 21.099 158.491 21.4743 158.491 21.4743L156.922 21.4541C156.919 21.4512 156.907 21.0904 157.052 20.617ZM155.096 23.3476H153.728V22.0516H155.096V23.3476ZM156.626 22.9608C156.626 22.9608 156.325 22.7097 156.204 22.5596C156.083 22.4095 156.003 22.2247 156.003 22.2247H158.615C158.615 22.2247 158.547 22.5307 158.249 22.5596C157.944 22.5913 157.681 22.294 157.214 22.473C156.75 22.6519 156.626 22.9608 156.626 22.9608ZM158.033 23.4775C157.788 23.489 157.604 23.3302 157.442 23.3447C157.273 23.362 157.146 23.3995 157.146 23.3995C157.146 23.3995 157.226 23.1802 157.545 23.1802C157.864 23.1802 157.894 23.31 158.092 23.2956C158.29 23.2841 158.458 23.1802 158.458 23.1802C158.458 23.1802 158.275 23.4601 158.033 23.4775ZM158.077 23.0647C157.717 23.1109 157.601 22.8829 157.306 22.9435C157.008 23.0041 156.919 23.1224 156.919 23.1224C156.919 23.1224 157.002 22.753 157.383 22.753C157.758 22.753 157.82 22.9002 158.139 22.8424C158.458 22.7818 158.659 22.6952 158.659 22.6952C158.659 22.6952 158.444 23.0214 158.077 23.0647Z" fill="white"/>
<path d="M173.588 12.0515C173.588 11.2809 172.946 10.6545 172.157 10.6545H171.209L168.688 8.19238H172.157C174.335 8.19238 176.105 9.92424 176.105 12.0515V25.4677L173.585 27.9298V12.0515H173.588Z" fill="white"/>
<path d="M158.423 40.8104L155.902 38.3482H172.157C172.946 38.3482 173.588 37.7219 173.588 36.9541V36.0276L176.108 33.5654V36.9541C176.108 39.0814 174.338 40.8104 172.16 40.8104H158.423Z" fill="white"/>
<path d="M146.668 40.8106C144.49 40.8106 142.717 39.0817 142.717 36.9544V23.5354L145.238 21.0732V36.9515C145.238 37.7222 145.879 38.3456 146.668 38.3456H147.616L150.137 40.8078H146.668V40.8106Z" fill="white"/>
<path d="M142.717 12.0515C142.717 9.92424 144.49 8.19238 146.668 8.19238H160.402L162.923 10.6545H146.668C145.879 10.6545 145.238 11.2809 145.238 12.0515V12.9752L142.717 15.4373V12.0515Z" fill="white"/>
<path d="M159.415 45.9684C158.358 45.9684 157.368 45.5672 156.623 44.8369L146.91 35.3492V31.8682L158.405 43.0964C158.662 43.3475 159.031 43.4947 159.415 43.4947C159.8 43.4947 160.166 43.3504 160.426 43.0964L161.097 42.4412H164.658L162.205 44.8369C161.46 45.5672 160.47 45.9684 159.415 45.9684Z" fill="white"/>
<path d="M160.423 5.90622C160.154 5.64355 159.794 5.49635 159.413 5.49635C159.031 5.49635 158.671 5.64067 158.402 5.90622L157.731 6.56144H154.167L156.62 4.1657C157.365 3.43832 158.358 3.03711 159.413 3.03711C160.467 3.03711 161.46 3.43832 162.205 4.1657L171.918 13.6534V17.1373L160.423 5.90622Z" fill="white"/>
<path d="M166.957 36.7147L178.451 25.4865C179.007 24.941 179.007 24.0578 178.451 23.5122L177.78 22.857V19.376L180.233 21.7717C181.773 23.2755 181.773 25.7232 180.233 27.2299L170.523 36.7147H166.957Z" fill="white"/>
<path d="M138.595 27.2282C137.85 26.5009 137.44 25.5339 137.44 24.5006C137.44 23.4701 137.85 22.5003 138.595 21.7729L148.305 12.2881H151.872L140.377 23.5163C139.818 24.0618 139.818 24.9451 140.377 25.4906L141.048 26.1458V29.6269L138.595 27.2282Z" fill="white"/>
</svg>
